<svg xmlns="http://www.w3.org/2000/svg" width="500" height="500" viewBox="0 0 500 500"><defs><style>.cls-1{fill:#2b2b2b;stroke:#3a3838;stroke-width:8px;}.cls-1,.cls-2{stroke-miterlimit:10;}.cls-3{letter-spacing:0em;}.cls-2{fill:#a0a0a0;stroke:#000;}.cls-4{letter-spacing:0em;}.cls-5{fill:#fff;font-family:MyriadPro-Regular, 'Myriad Pro';font-size:12px;}.cls-6{fill:#3a3a3a;}.cls-6,.cls-7,.cls-8,.cls-9{stroke-width:0px;}.cls-7{fill:#1e1e1e;}.cls-8{fill:#b2acaa;}.cls-9{fill:#7f6a58;}</style></defs><g id="Layer_1"><rect class="cls-6" x="89.42" y="44.46" width="273.05" height="387.08"/><polygon class="cls-7" points="362.46 44.46 396.66 66.43 396.66 402.24 362.46 431.53 362.46 44.46"/></g><g id="Layer_2"><rect class="cls-9" x="355.45" y="44.46" width="7.01" height="387.08"/><rect class="cls-9" x="344.35" y="44.46" width="7.01" height="387.08"/><rect class="cls-9" x="333.28" y="44.46" width="7.01" height="387.08"/><rect class="cls-9" x="321.66" y="44.46" width="7.01" height="387.08"/><rect class="cls-9" x="310.16" y="44.46" width="7.01" height="387.08"/><rect class="cls-9" x="298.82" y="44.46" width="7.01" height="387.08"/><rect class="cls-9" x="287.39" y="44.46" width="7.01" height="387.08"/><rect class="cls-9" x="275.97" y="44.46" width="7.01" height="387.08"/><rect class="cls-9" x="264.37" y="44.46" width="7.01" height="387.08"/><rect class="cls-9" x="252.5" y="44.46" width="7.01" height="387.08"/><rect class="cls-9" x="240.59" y="44.46" width="7.01" height="387.08"/><rect class="cls-9" x="229.08" y="44.46" width="7.01" height="387.08"/></g><g id="Layer_3"><rect class="cls-1" x="259.94" y="168.71" width="73.33" height="81.29"/><rect class="cls-1" x="123.15" y="168.71" width="73.33" height="81.29"/></g><g id="Layer_4"><rect class="cls-2" x="287.4" y="173.24" width="18.43" height="34.74"/><rect class="cls-2" x="147.84" y="173.24" width="18.43" height="34.74"/></g><g id="Layer_5"><rect class="cls-8" x="259.3" y="75.96" width="67.43" height="57.29" rx="2.48" ry="2.48" transform="translate(397.62 -188.4) rotate(90)"/><text class="cls-5" transform="translate(108.05 65.28)"><tspan x="0" y="0">N</tspan><tspan class="cls-4" x="7.9" y="0">a</tspan><tspan class="cls-3" x="13.58" y="0">vi</tspan></text><rect class="cls-9" x="138.58" y="234.27" width="39.77" height="3.73"/><rect class="cls-9" x="276.09" y="234.27" width="39.77" height="3.73"/><rect class="cls-9" x="276.68" y="239.19" width="12.59" height="2.1" transform="translate(-66.57 365.19) rotate(-60)"/><rect class="cls-9" x="140.45" y="239.19" width="12.59" height="2.1" transform="translate(-134.68 247.21) rotate(-60)"/><rect class="cls-9" x="301.73" y="239.19" width="12.59" height="2.1" transform="translate(253.99 627.13) rotate(-120)"/><rect class="cls-9" x="165.73" y="239.79" width="12.59" height="2.1" transform="translate(49.47 510.24) rotate(-120)"/></g></svg>