<svg width="360" height="360" viewBox="0 0 360 360" fill="none" xmlns="http://www.w3.org/2000/svg">
<g clip-path="url(#clip0_736_413)">
<rect width="360" height="360" fill="white"/>
<rect width="360" height="360" fill="#F4F4F4"/>
<rect x="18.25" y="35.25" width="28.5" height="309.5" rx="0.75" fill="#E1FBB3" stroke="#1E1E1E" stroke-width="0.5"/>
<rect x="120.25" y="35.25" width="28.5" height="78.5" rx="0.75" fill="#AAA3FF" stroke="#1E1E1E" stroke-width="0.5"/>
<rect x="153.25" y="253.25" width="28.5" height="78.5" rx="0.75" fill="#F6FFEA" stroke="#1E1E1E" stroke-width="0.5"/>
<rect x="226.25" y="35.25" width="28.5" height="78.5" rx="0.75" fill="#AAA3FF" stroke="#1E1E1E" stroke-width="0.5"/>
<rect x="263.25" y="182.75" width="28.5" height="78.5" rx="0.75" transform="rotate(-90 263.25 182.75)" fill="#AAA3FF" stroke="#1E1E1E" stroke-width="0.5"/>
<rect x="263.25" y="301.75" width="28.5" height="78.5" rx="0.75" transform="rotate(-90 263.25 301.75)" fill="#AAA3FF" stroke="#1E1E1E" stroke-width="0.5"/>
<path d="M20.34 23H19.332L18.144 14.18H19.344L19.86 18.764L19.884 19.052H19.98L20.016 18.764L20.568 14.18H21.504L22.056 18.764L22.092 19.052H22.188L22.212 18.764L22.728 14.18H23.928L22.74 23H21.732L21.132 18.824L21.06 18.308H21.012L20.94 18.824L20.34 23ZM27.5863 20.648V21.404C27.5503 22.04 27.3583 22.484 26.9263 22.832C26.7103 23.012 26.4103 23.096 26.0143 23.096C25.2343 23.096 24.8383 22.664 24.6463 22.232C24.5383 21.98 24.4663 21.692 24.4543 21.368V18.068C24.4903 17.432 24.6943 16.964 25.1263 16.604C25.3303 16.424 25.6303 16.34 26.0263 16.34C26.8063 16.34 27.2023 16.772 27.3943 17.192C27.5023 17.444 27.5743 17.72 27.5863 18.032V19.94H25.5823V21.368C25.5943 21.62 25.6663 21.8 25.7743 21.932C25.8343 21.992 25.9183 22.028 26.0263 22.028C26.2543 22.028 26.3623 21.884 26.4103 21.704C26.4463 21.608 26.4583 21.5 26.4583 21.368V20.648H27.5863ZM25.5823 18.992H26.4583V18.068C26.4583 17.816 26.4103 17.636 26.2903 17.492C26.2303 17.432 26.1343 17.396 26.0263 17.396C25.7983 17.396 25.7023 17.552 25.6423 17.732C25.6063 17.828 25.5943 17.936 25.5823 18.068V18.992ZM28.4175 14.18H29.6295V16.868C29.8335 16.676 30.0135 16.532 30.2535 16.424C30.3615 16.364 30.4815 16.34 30.5895 16.34C30.9255 16.34 31.1535 16.532 31.3095 16.772C31.4535 17.024 31.5255 17.348 31.5255 17.624V21.812C31.5255 22.088 31.4535 22.412 31.3095 22.652C31.1535 22.904 30.9255 23.096 30.5895 23.096C30.3615 23.096 30.1215 22.964 29.9415 22.832C29.8335 22.748 29.7375 22.664 29.6295 22.568V23H28.4175V14.18ZM29.6295 21.56C29.6295 21.788 29.8095 21.956 29.9895 21.956C30.1695 21.956 30.3135 21.788 30.3135 21.56V17.876C30.3135 17.648 30.1695 17.48 29.9895 17.48C29.8095 17.48 29.6295 17.684 29.6295 17.876V21.56ZM32.437 16.436H33.649V16.868C33.853 16.676 34.033 16.532 34.273 16.424C34.381 16.364 34.501 16.34 34.609 16.34C34.945 16.34 35.173 16.532 35.329 16.772C35.473 17.024 35.545 17.348 35.545 17.624V21.812C35.545 22.088 35.473 22.412 35.329 22.652C35.173 22.904 34.945 23.096 34.609 23.096C34.381 23.096 34.141 22.964 33.961 22.832C33.853 22.748 33.757 22.664 33.649 22.568V25.256H32.437V16.436ZM33.649 21.56C33.649 21.752 33.829 21.956 34.009 21.956C34.189 21.956 34.333 21.788 34.333 21.56V17.876C34.333 17.648 34.189 17.48 34.009 17.48C33.829 17.48 33.649 17.648 33.649 17.876V21.56ZM38.2223 17.996C38.2223 17.888 38.2223 17.72 38.1863 17.6C38.1383 17.48 38.0423 17.396 37.8863 17.396C37.6823 17.396 37.5983 17.552 37.5623 17.744C37.5503 17.84 37.5383 17.948 37.5383 18.056C37.5383 18.164 37.5383 18.272 37.5383 18.368H36.3263V18.092C36.3263 17.612 36.5063 17.18 36.7943 16.856C37.0823 16.532 37.4902 16.34 37.9583 16.34C38.3543 16.34 38.7143 16.496 38.9902 16.76C39.2663 17.024 39.4342 17.396 39.4342 17.828V21.86C39.4342 22.448 39.4703 22.712 39.5183 23H38.3303C38.2223 22.868 38.2223 22.556 38.2223 22.472H38.1383C38.0783 22.58 37.9703 22.736 37.8023 22.868C37.6343 23 37.4062 23.096 37.1663 23.096C37.0103 23.096 36.7583 23.036 36.5663 22.796C36.3623 22.568 36.1943 22.16 36.1943 21.476C36.1943 20.744 36.4103 20.216 36.6982 19.856C36.9863 19.496 37.3463 19.268 37.6463 19.112C37.9463 18.956 38.1743 18.848 38.2223 18.716V17.996ZM38.2223 19.832C37.6343 20.084 37.3823 20.672 37.3823 21.296C37.3823 21.38 37.3943 21.524 37.4423 21.656C37.4902 21.8 37.5743 21.908 37.7183 21.908C37.9943 21.908 38.2223 21.74 38.2223 21.512V19.832ZM43.2292 19.832C43.1932 20.444 42.9772 20.876 42.5572 21.2C42.3412 21.368 42.0412 21.452 41.6692 21.452C41.6332 21.452 41.5972 21.452 41.5612 21.452C41.5252 21.452 41.4772 21.452 41.4412 21.44C41.3332 21.536 41.2732 21.632 41.2732 21.74C41.2732 21.884 41.3932 21.968 41.5732 22.016C41.7532 22.076 41.9692 22.112 42.1972 22.148C42.5812 22.196 42.9892 22.292 43.3252 22.52C43.6492 22.748 43.8772 23.096 43.8772 23.672C43.8772 24.308 43.6012 24.74 43.2172 24.992C42.8212 25.244 42.2932 25.352 41.8012 25.352C41.2252 25.34 40.7332 25.256 40.3972 25.064C40.0492 24.872 39.8572 24.56 39.8572 24.08C39.8572 23.852 39.9772 23.66 40.1572 23.492C40.3372 23.324 40.5772 23.192 40.8052 23.084C40.4092 22.976 40.0732 22.724 40.0732 22.208C40.0732 22.016 40.1812 21.824 40.3252 21.644C40.4692 21.464 40.6492 21.32 40.8292 21.224C40.4812 20.996 40.3132 20.636 40.2292 20.336C40.1812 20.156 40.1452 19.976 40.1332 19.796V18.008C40.1812 17.396 40.3732 16.952 40.7932 16.604C40.9972 16.424 41.2972 16.34 41.6692 16.34C42.2812 16.34 42.6532 16.616 42.8812 16.94C42.9652 16.856 43.1092 16.712 43.3012 16.58C43.4812 16.448 43.6852 16.34 43.8772 16.34V17.42C43.5532 17.42 43.3132 17.48 43.1692 17.564C43.1812 17.624 43.1932 17.684 43.2052 17.72C43.2052 17.768 43.2052 17.816 43.2172 17.852C43.2292 17.888 43.2292 17.936 43.2292 17.972V19.832ZM42.0412 18.056C42.0412 17.828 41.9932 17.684 41.8972 17.552C41.8492 17.492 41.7772 17.456 41.6692 17.456C41.4772 17.456 41.3812 17.612 41.3452 17.756C41.3212 17.84 41.3092 17.948 41.3212 18.056V19.856C41.3092 20.084 41.3452 20.228 41.4532 20.348C41.5012 20.408 41.5732 20.444 41.6692 20.444C41.8732 20.444 41.9572 20.3 42.0052 20.156C42.0292 20.072 42.0412 19.964 42.0412 19.856V18.056ZM41.4772 23.3C41.2252 23.444 41.0332 23.624 41.0332 23.876C41.0332 24.128 41.2612 24.332 41.8252 24.332C42.0292 24.332 42.2572 24.296 42.4372 24.224C42.6172 24.152 42.7492 24.044 42.7492 23.888C42.7492 23.78 42.7372 23.696 42.6532 23.612C42.5572 23.528 42.4012 23.468 42.1012 23.42L41.4772 23.3ZM47.3441 20.648V21.404C47.3081 22.04 47.1161 22.484 46.6841 22.832C46.4681 23.012 46.1681 23.096 45.7721 23.096C44.9921 23.096 44.5961 22.664 44.4041 22.232C44.2961 21.98 44.2241 21.692 44.2121 21.368V18.068C44.2481 17.432 44.4521 16.964 44.8841 16.604C45.0881 16.424 45.3881 16.34 45.7841 16.34C46.5641 16.34 46.9601 16.772 47.1521 17.192C47.2601 17.444 47.3321 17.72 47.3441 18.032V19.94H45.3401V21.368C45.3521 21.62 45.4241 21.8 45.5321 21.932C45.5921 21.992 45.6761 22.028 45.7841 22.028C46.0121 22.028 46.1201 21.884 46.1681 21.704C46.2041 21.608 46.2161 21.5 46.2161 21.368V20.648H47.3441ZM45.3401 18.992H46.2161V18.068C46.2161 17.816 46.1681 17.636 46.0481 17.492C45.9881 17.432 45.8921 17.396 45.7841 17.396C45.5561 17.396 45.4601 17.552 45.4001 17.732C45.3641 17.828 45.3521 17.936 45.3401 18.068V18.992Z" fill="#1E1E1E"/>
<path d="M110.784 19.16H109.776V23H108.48V14.18H109.776V17.828H110.784V14.18H112.08V23H110.784V19.16ZM112.583 15.512V14.18H116.327V15.512H115.103V23H113.807V15.512H112.583ZM118.983 23L118.155 17.456L118.107 17.084H118.035V23H116.835V14.18H118.419L119.187 18.212L119.247 18.68H119.271L119.331 18.212L120.099 14.18H121.683V23H120.483V17.084H120.411L120.363 17.456L119.535 23H118.983ZM123.536 23H122.264L123.692 18.368L122.288 14.18H123.56L124.268 16.412L124.304 16.52H124.352L124.388 16.412L125.096 14.18H126.368L124.964 18.368L126.392 23H125.12L124.376 20.372L124.352 20.264H124.304L124.28 20.372L123.536 23ZM130.972 23L130.144 17.456L130.096 17.084H130.024V23H128.824V14.18H130.408L131.176 18.212L131.236 18.68H131.26L131.32 18.212L132.088 14.18H133.672V23H132.472V17.084H132.4L132.352 17.456L131.524 23H130.972ZM134.636 14.18H135.848V15.392H134.636V14.18ZM134.636 23V16.436H135.848V23H134.636ZM139.864 23H138.652V22.568C138.448 22.76 138.268 22.904 138.04 23.012C137.92 23.072 137.8 23.096 137.692 23.096C137.356 23.096 137.128 22.904 136.984 22.652C136.828 22.412 136.756 22.088 136.756 21.812V17.624C136.756 17.348 136.828 17.024 136.984 16.772C137.128 16.532 137.356 16.34 137.692 16.34C137.92 16.34 138.16 16.472 138.34 16.604C138.448 16.688 138.544 16.772 138.652 16.868V14.18H139.864V23ZM138.652 17.876C138.652 17.684 138.472 17.48 138.292 17.48C138.112 17.48 137.968 17.648 137.968 17.876V21.56C137.968 21.788 138.112 21.956 138.292 21.956C138.472 21.956 138.652 21.788 138.652 21.56V17.876ZM143.884 23H142.672V22.568C142.468 22.76 142.288 22.904 142.06 23.012C141.94 23.072 141.82 23.096 141.712 23.096C141.376 23.096 141.148 22.904 141.004 22.652C140.848 22.412 140.776 22.088 140.776 21.812V17.624C140.776 17.348 140.848 17.024 141.004 16.772C141.148 16.532 141.376 16.34 141.712 16.34C141.94 16.34 142.18 16.472 142.36 16.604C142.468 16.688 142.564 16.772 142.672 16.868V14.18H143.884V23ZM142.672 17.876C142.672 17.684 142.492 17.48 142.312 17.48C142.132 17.48 141.988 17.648 141.988 17.876V21.56C141.988 21.788 142.132 21.956 142.312 21.956C142.492 21.956 142.672 21.788 142.672 21.56V17.876ZM144.843 23V14.18H146.055V23H144.843ZM150.024 20.648V21.404C149.988 22.04 149.796 22.484 149.364 22.832C149.148 23.012 148.848 23.096 148.452 23.096C147.672 23.096 147.276 22.664 147.084 22.232C146.976 21.98 146.904 21.692 146.892 21.368V18.068C146.928 17.432 147.132 16.964 147.564 16.604C147.768 16.424 148.068 16.34 148.464 16.34C149.244 16.34 149.64 16.772 149.832 17.192C149.94 17.444 150.012 17.72 150.024 18.032V19.94H148.02V21.368C148.032 21.62 148.104 21.8 148.212 21.932C148.272 21.992 148.356 22.028 148.464 22.028C148.692 22.028 148.8 21.884 148.848 21.704C148.884 21.608 148.896 21.5 148.896 21.368V20.648H150.024ZM148.02 18.992H148.896V18.068C148.896 17.816 148.848 17.636 148.728 17.492C148.668 17.432 148.572 17.396 148.464 17.396C148.236 17.396 148.14 17.552 148.08 17.732C148.044 17.828 148.032 17.936 148.02 18.068V18.992ZM153.52 23L153.052 19.868L152.992 19.496H152.944L152.884 19.868L152.416 23H151.408L150.436 16.436H151.54L151.924 19.868L151.972 20.24H152.044L152.104 19.868L152.608 16.436H153.328L153.832 19.868L153.892 20.24H153.964L154.012 19.868L154.396 16.436H155.5L154.528 23H153.52ZM157.859 17.996C157.859 17.888 157.859 17.72 157.823 17.6C157.775 17.48 157.679 17.396 157.523 17.396C157.319 17.396 157.235 17.552 157.199 17.744C157.187 17.84 157.175 17.948 157.175 18.056C157.175 18.164 157.175 18.272 157.175 18.368H155.963V18.092C155.963 17.612 156.143 17.18 156.431 16.856C156.719 16.532 157.127 16.34 157.595 16.34C157.991 16.34 158.351 16.496 158.627 16.76C158.903 17.024 159.071 17.396 159.071 17.828V21.86C159.071 22.448 159.107 22.712 159.155 23H157.967C157.859 22.868 157.859 22.556 157.859 22.472H157.775C157.715 22.58 157.607 22.736 157.439 22.868C157.271 23 157.043 23.096 156.803 23.096C156.647 23.096 156.395 23.036 156.203 22.796C155.999 22.568 155.831 22.16 155.831 21.476C155.831 20.744 156.047 20.216 156.335 19.856C156.623 19.496 156.983 19.268 157.283 19.112C157.583 18.956 157.811 18.848 157.859 18.716V17.996ZM157.859 19.832C157.271 20.084 157.019 20.672 157.019 21.296C157.019 21.38 157.031 21.524 157.079 21.656C157.127 21.8 157.211 21.908 157.355 21.908C157.631 21.908 157.859 21.74 157.859 21.512V19.832ZM162.291 17.684C162.183 17.648 162.063 17.636 161.955 17.636C161.763 17.636 161.535 17.66 161.343 17.84C161.115 18.032 161.079 18.236 161.079 18.44V23H159.867V16.436H161.079V17.168C161.091 17.084 161.175 16.88 161.367 16.688C161.559 16.508 161.847 16.34 162.291 16.34V17.684ZM165.809 20.648V21.404C165.773 22.04 165.581 22.484 165.149 22.832C164.933 23.012 164.633 23.096 164.237 23.096C163.457 23.096 163.061 22.664 162.869 22.232C162.761 21.98 162.689 21.692 162.677 21.368V18.068C162.713 17.432 162.917 16.964 163.349 16.604C163.553 16.424 163.853 16.34 164.249 16.34C165.029 16.34 165.425 16.772 165.617 17.192C165.725 17.444 165.797 17.72 165.809 18.032V19.94H163.805V21.368C163.817 21.62 163.889 21.8 163.997 21.932C164.057 21.992 164.141 22.028 164.249 22.028C164.477 22.028 164.585 21.884 164.633 21.704C164.669 21.608 164.681 21.5 164.681 21.368V20.648H165.809ZM163.805 18.992H164.681V18.068C164.681 17.816 164.633 17.636 164.513 17.492C164.453 17.432 164.357 17.396 164.249 17.396C164.021 17.396 163.925 17.552 163.865 17.732C163.829 17.828 163.817 17.936 163.805 18.068V18.992Z" fill="#1E1E1E"/>
<path d="M223.48 23V14.18H224.5C225.7 14.18 226.348 14.42 226.696 15.092C227.032 15.764 227.08 16.868 227.08 18.596C227.08 20.324 227.032 21.416 226.696 22.088C226.348 22.76 225.7 23 224.5 23H223.48ZM224.776 21.704C225.22 21.704 225.472 21.656 225.604 21.224C225.664 21.02 225.712 20.708 225.724 20.288C225.736 19.868 225.736 19.304 225.736 18.584C225.736 17.864 225.736 17.3 225.724 16.88C225.712 16.472 225.664 16.16 225.604 15.944C225.472 15.524 225.22 15.476 224.776 15.476V21.704ZM227.945 14.18H229.157V15.392H227.945V14.18ZM227.945 23V16.436H229.157V23H227.945ZM231.89 18.116C231.89 17.96 231.89 17.768 231.842 17.612C231.782 17.468 231.686 17.348 231.494 17.348C231.338 17.348 231.242 17.468 231.194 17.612C231.134 17.756 231.122 17.96 231.122 18.116C231.122 18.32 231.23 18.536 231.386 18.728C231.53 18.92 231.722 19.112 231.914 19.292C232.166 19.544 232.466 19.832 232.67 20.156C232.874 20.492 233.03 20.864 233.03 21.296C233.03 21.716 232.934 22.16 232.694 22.496C232.442 22.844 232.058 23.096 231.482 23.096C230.75 23.096 230.318 22.76 230.078 22.352C229.838 21.944 229.79 21.44 229.79 21.092H230.918C230.918 21.272 230.93 21.524 231.014 21.716C231.098 21.92 231.23 22.088 231.482 22.088C231.83 22.088 231.902 21.68 231.902 21.296C231.902 20.9 231.518 20.504 231.146 20.132C230.858 19.856 230.582 19.604 230.366 19.28C230.15 18.956 229.994 18.596 229.994 18.116C229.994 17.732 230.066 17.288 230.294 16.94C230.522 16.604 230.894 16.352 231.47 16.34C232.178 16.328 232.574 16.592 232.778 16.94C232.982 17.288 233.018 17.744 233.018 18.116H231.89ZM233.746 16.436H234.958V16.868C235.162 16.676 235.342 16.532 235.582 16.424C235.69 16.364 235.81 16.34 235.918 16.34C236.254 16.34 236.482 16.532 236.638 16.772C236.782 17.024 236.854 17.348 236.854 17.624V21.812C236.854 22.088 236.782 22.412 236.638 22.652C236.482 22.904 236.254 23.096 235.918 23.096C235.69 23.096 235.45 22.964 235.27 22.832C235.162 22.748 235.066 22.664 234.958 22.568V25.256H233.746V16.436ZM234.958 21.56C234.958 21.752 235.138 21.956 235.318 21.956C235.498 21.956 235.642 21.788 235.642 21.56V17.876C235.642 17.648 235.498 17.48 235.318 17.48C235.138 17.48 234.958 17.648 234.958 17.876V21.56ZM239.531 17.996C239.531 17.888 239.531 17.72 239.495 17.6C239.447 17.48 239.351 17.396 239.195 17.396C238.991 17.396 238.907 17.552 238.871 17.744C238.859 17.84 238.847 17.948 238.847 18.056C238.847 18.164 238.847 18.272 238.847 18.368H237.635V18.092C237.635 17.612 237.815 17.18 238.103 16.856C238.391 16.532 238.799 16.34 239.267 16.34C239.663 16.34 240.023 16.496 240.299 16.76C240.575 17.024 240.743 17.396 240.743 17.828V21.86C240.743 22.448 240.779 22.712 240.827 23H239.639C239.531 22.868 239.531 22.556 239.531 22.472H239.447C239.387 22.58 239.279 22.736 239.111 22.868C238.943 23 238.715 23.096 238.475 23.096C238.319 23.096 238.067 23.036 237.875 22.796C237.671 22.568 237.503 22.16 237.503 21.476C237.503 20.744 237.719 20.216 238.007 19.856C238.295 19.496 238.655 19.268 238.955 19.112C239.255 18.956 239.483 18.848 239.531 18.716V17.996ZM239.531 19.832C238.943 20.084 238.691 20.672 238.691 21.296C238.691 21.38 238.703 21.524 238.751 21.656C238.799 21.8 238.883 21.908 239.027 21.908C239.303 21.908 239.531 21.74 239.531 21.512V19.832ZM242.956 14.816V16.436H243.784V17.528H242.956V20.792C242.956 20.996 242.956 21.26 243.004 21.476C243.052 21.692 243.148 21.872 243.34 21.872C243.436 21.872 243.556 21.86 243.64 21.848C243.688 21.836 243.736 21.836 243.784 21.824V23.012C243.724 23.024 243.664 23.048 243.604 23.06C243.484 23.084 243.328 23.096 243.136 23.096C242.428 23.096 242.092 22.736 241.924 22.28C241.756 21.824 241.744 21.272 241.744 20.888V17.528H241.132V16.436H241.744V14.816H242.956ZM245.549 21.488C245.549 21.728 245.561 22.016 245.885 22.016C246.161 22.016 246.233 21.884 246.233 21.488V20.576H247.445V21.212C247.445 21.944 247.313 22.412 247.049 22.7C246.785 22.988 246.401 23.096 245.885 23.096C245.453 23.096 245.057 22.976 244.781 22.676C244.505 22.376 244.337 21.884 244.337 21.152V18.284C244.337 17.552 244.505 17.06 244.781 16.76C245.057 16.46 245.453 16.34 245.885 16.34C246.401 16.34 246.785 16.448 247.049 16.736C247.313 17.024 247.445 17.492 247.445 18.224V18.74H246.233V17.948C246.233 17.552 246.161 17.42 245.885 17.42C245.561 17.42 245.549 17.708 245.549 17.948V21.488ZM249.43 23H248.218V14.18H249.43V16.988C249.454 16.976 249.502 16.928 249.574 16.856C249.706 16.724 249.886 16.544 250.102 16.424C250.21 16.364 250.306 16.34 250.414 16.34C250.738 16.34 250.966 16.532 251.11 16.772C251.254 17.024 251.326 17.348 251.326 17.624V23H250.114V17.804C250.114 17.552 249.97 17.516 249.826 17.516C249.694 17.516 249.622 17.588 249.538 17.672C249.502 17.72 249.466 17.768 249.43 17.828V23ZM255.297 20.648V21.404C255.261 22.04 255.069 22.484 254.637 22.832C254.421 23.012 254.121 23.096 253.725 23.096C252.945 23.096 252.549 22.664 252.357 22.232C252.249 21.98 252.177 21.692 252.165 21.368V18.068C252.201 17.432 252.405 16.964 252.837 16.604C253.041 16.424 253.341 16.34 253.737 16.34C254.517 16.34 254.913 16.772 255.105 17.192C255.213 17.444 255.285 17.72 255.297 18.032V19.94H253.293V21.368C253.305 21.62 253.377 21.8 253.485 21.932C253.545 21.992 253.629 22.028 253.737 22.028C253.965 22.028 254.073 21.884 254.121 21.704C254.157 21.608 254.169 21.5 254.169 21.368V20.648H255.297ZM253.293 18.992H254.169V18.068C254.169 17.816 254.121 17.636 254.001 17.492C253.941 17.432 253.845 17.396 253.737 17.396C253.509 17.396 253.413 17.552 253.353 17.732C253.317 17.828 253.305 17.936 253.293 18.068V18.992ZM258.529 17.684C258.421 17.648 258.301 17.636 258.193 17.636C258.001 17.636 257.773 17.66 257.581 17.84C257.353 18.032 257.317 18.236 257.317 18.44V23H256.105V16.436H257.317V17.168C257.329 17.084 257.413 16.88 257.605 16.688C257.797 16.508 258.085 16.34 258.529 16.34V17.684Z" fill="#1E1E1E"/>
<path d="M288.852 141.976V143.188C288.84 143.548 288.768 143.872 288.636 144.148C288.528 144.388 288.36 144.616 288.12 144.796C287.88 144.988 287.556 145.096 287.124 145.096C286.692 145.096 286.356 144.988 286.116 144.796C285.876 144.616 285.72 144.388 285.612 144.148C285.48 143.872 285.408 143.548 285.396 143.188V137.992C285.408 137.644 285.48 137.32 285.612 137.044C285.72 136.804 285.876 136.564 286.116 136.384C286.356 136.204 286.692 136.084 287.124 136.084C287.556 136.084 287.88 136.204 288.12 136.384C288.36 136.564 288.528 136.804 288.636 137.044C288.768 137.32 288.84 137.644 288.852 137.992V139.204H287.64V137.992C287.64 137.752 287.58 137.584 287.448 137.44C287.388 137.38 287.28 137.344 287.148 137.344C286.92 137.344 286.812 137.512 286.752 137.668C286.716 137.764 286.704 137.872 286.692 137.992V143.188C286.704 143.44 286.776 143.608 286.896 143.74C286.956 143.8 287.04 143.836 287.148 143.836C287.424 143.836 287.532 143.692 287.592 143.512C287.628 143.428 287.64 143.32 287.64 143.188V141.976H288.852ZM292.628 143.404C292.592 144.04 292.4 144.484 291.98 144.832C291.764 145.012 291.464 145.096 291.068 145.096C290.288 145.096 289.904 144.664 289.712 144.232C289.604 143.98 289.532 143.692 289.52 143.368V140.068C289.556 139.432 289.748 138.964 290.168 138.604C290.372 138.424 290.672 138.34 291.068 138.34C291.848 138.34 292.244 138.772 292.436 139.192C292.544 139.444 292.616 139.72 292.628 140.032V143.404ZM291.488 140.068C291.5 139.816 291.452 139.636 291.332 139.492C291.272 139.432 291.176 139.396 291.068 139.396C290.84 139.396 290.744 139.552 290.696 139.732C290.66 139.828 290.648 139.936 290.66 140.068V143.368C290.648 143.62 290.708 143.8 290.816 143.932C290.876 143.992 290.96 144.028 291.068 144.028C291.296 144.028 291.404 143.884 291.452 143.704C291.488 143.608 291.5 143.5 291.488 143.368V140.068ZM296.592 145H295.452V139.804C295.452 139.552 295.26 139.516 295.128 139.516C294.996 139.516 294.888 139.588 294.804 139.672C294.756 139.72 294.708 139.768 294.672 139.828V145H293.46V138.436H294.672V138.988C294.696 138.976 294.744 138.928 294.816 138.856C294.948 138.724 295.152 138.544 295.368 138.424C295.476 138.364 295.572 138.34 295.68 138.34C296.112 138.34 296.364 138.688 296.496 139.072C296.544 139.036 296.604 138.976 296.688 138.892C296.844 138.724 297.048 138.568 297.276 138.436C297.384 138.376 297.492 138.34 297.6 138.34C297.924 138.34 298.152 138.532 298.296 138.772C298.44 139.024 298.512 139.348 298.512 139.624V145H297.372V139.804C297.372 139.552 297.18 139.516 297.048 139.516C296.916 139.516 296.808 139.588 296.724 139.672C296.676 139.72 296.628 139.768 296.592 139.828V145ZM299.449 138.436H300.661V138.868C300.865 138.676 301.045 138.532 301.285 138.424C301.393 138.364 301.513 138.34 301.621 138.34C301.957 138.34 302.185 138.532 302.341 138.772C302.485 139.024 302.557 139.348 302.557 139.624V143.812C302.557 144.088 302.485 144.412 302.341 144.652C302.185 144.904 301.957 145.096 301.621 145.096C301.393 145.096 301.153 144.964 300.973 144.832C300.865 144.748 300.769 144.664 300.661 144.568V147.256H299.449V138.436ZM300.661 143.56C300.661 143.752 300.841 143.956 301.021 143.956C301.201 143.956 301.345 143.788 301.345 143.56V139.876C301.345 139.648 301.201 139.48 301.021 139.48C300.841 139.48 300.661 139.648 300.661 139.876V143.56ZM306.468 143.404C306.432 144.04 306.24 144.484 305.82 144.832C305.604 145.012 305.304 145.096 304.908 145.096C304.128 145.096 303.744 144.664 303.552 144.232C303.444 143.98 303.372 143.692 303.36 143.368V140.068C303.396 139.432 303.588 138.964 304.008 138.604C304.212 138.424 304.512 138.34 304.908 138.34C305.688 138.34 306.084 138.772 306.276 139.192C306.384 139.444 306.456 139.72 306.468 140.032V143.404ZM305.328 140.068C305.34 139.816 305.292 139.636 305.172 139.492C305.112 139.432 305.016 139.396 304.908 139.396C304.68 139.396 304.584 139.552 304.536 139.732C304.5 139.828 304.488 139.936 304.5 140.068V143.368C304.488 143.62 304.548 143.8 304.656 143.932C304.716 143.992 304.8 144.028 304.908 144.028C305.136 144.028 305.244 143.884 305.292 143.704C305.328 143.608 305.34 143.5 305.328 143.368V140.068ZM308.512 145H307.3V138.436H308.512V138.988C308.536 138.976 308.584 138.928 308.656 138.856C308.788 138.724 308.968 138.544 309.184 138.424C309.292 138.364 309.388 138.34 309.496 138.34C309.82 138.34 310.048 138.532 310.192 138.772C310.336 139.024 310.408 139.348 310.408 139.624V145H309.196V139.804C309.196 139.552 309.052 139.516 308.908 139.516C308.776 139.516 308.704 139.588 308.62 139.672C308.584 139.72 308.548 139.768 308.512 139.828V145ZM314.379 142.648V143.404C314.343 144.04 314.151 144.484 313.719 144.832C313.503 145.012 313.203 145.096 312.807 145.096C312.027 145.096 311.631 144.664 311.439 144.232C311.331 143.98 311.259 143.692 311.247 143.368V140.068C311.283 139.432 311.487 138.964 311.919 138.604C312.123 138.424 312.423 138.34 312.819 138.34C313.599 138.34 313.995 138.772 314.187 139.192C314.295 139.444 314.367 139.72 314.379 140.032V141.94H312.375V143.368C312.387 143.62 312.459 143.8 312.567 143.932C312.627 143.992 312.711 144.028 312.819 144.028C313.047 144.028 313.155 143.884 313.203 143.704C313.239 143.608 313.251 143.5 313.251 143.368V142.648H314.379ZM312.375 140.992H313.251V140.068C313.251 139.816 313.203 139.636 313.083 139.492C313.023 139.432 312.927 139.396 312.819 139.396C312.591 139.396 312.495 139.552 312.435 139.732C312.399 139.828 312.387 139.936 312.375 140.068V140.992ZM316.399 145H315.187V138.436H316.399V138.988C316.423 138.976 316.471 138.928 316.543 138.856C316.675 138.724 316.855 138.544 317.071 138.424C317.179 138.364 317.275 138.34 317.383 138.34C317.707 138.34 317.935 138.532 318.079 138.772C318.223 139.024 318.295 139.348 318.295 139.624V145H317.083V139.804C317.083 139.552 316.939 139.516 316.795 139.516C316.663 139.516 316.591 139.588 316.507 139.672C316.471 139.72 316.435 139.768 316.399 139.828V145ZM320.624 136.816V138.436H321.452V139.528H320.624V142.792C320.624 142.996 320.624 143.26 320.672 143.476C320.72 143.692 320.816 143.872 321.008 143.872C321.104 143.872 321.224 143.86 321.308 143.848C321.356 143.836 321.404 143.836 321.452 143.824V145.012C321.392 145.024 321.332 145.048 321.272 145.06C321.152 145.084 320.996 145.096 320.804 145.096C320.096 145.096 319.76 144.736 319.592 144.28C319.424 143.824 319.412 143.272 319.412 142.888V139.528H318.8V138.436H319.412V136.816H320.624Z" fill="#1E1E1E"/>
<path d="M281.784 261.16H280.776V265H279.48V256.18H280.776V259.828H281.784V256.18H283.08V265H281.784V261.16ZM283.583 257.512V256.18H287.327V257.512H286.103V265H284.807V257.512H283.583ZM289.983 265L289.155 259.456L289.107 259.084H289.035V265H287.835V256.18H289.419L290.187 260.212L290.247 260.68H290.271L290.331 260.212L291.099 256.18H292.683V265H291.483V259.084H291.411L291.363 259.456L290.535 265H289.983ZM294.536 265H293.264L294.692 260.368L293.288 256.18H294.56L295.268 258.412L295.304 258.52H295.352L295.388 258.412L296.096 256.18H297.368L295.964 260.368L297.392 265H296.12L295.376 262.372L295.352 262.264H295.304L295.28 262.372L294.536 265ZM302.908 257.512H301.12V259.828H302.32V261.16H301.12V265H299.824V256.18H302.908V257.512ZM305.305 258.436H306.517V265H305.305V264.448C305.281 264.46 305.233 264.508 305.173 264.568C305.029 264.712 304.861 264.88 304.645 265C304.537 265.06 304.429 265.096 304.321 265.096C303.997 265.096 303.769 264.904 303.625 264.652C303.481 264.412 303.409 264.088 303.409 263.812V258.436H304.621V263.632C304.621 263.884 304.765 263.92 304.909 263.92C305.041 263.92 305.113 263.848 305.197 263.764C305.233 263.728 305.269 263.668 305.305 263.608V258.436ZM308.688 265H307.476V258.436H308.688V258.988C308.712 258.976 308.76 258.928 308.832 258.856C308.964 258.724 309.144 258.544 309.36 258.424C309.468 258.364 309.564 258.34 309.672 258.34C309.996 258.34 310.224 258.532 310.368 258.772C310.512 259.024 310.584 259.348 310.584 259.624V265H309.372V259.804C309.372 259.552 309.228 259.516 309.084 259.516C308.952 259.516 308.88 259.588 308.796 259.672C308.76 259.72 308.724 259.768 308.688 259.828V265ZM312.635 263.488C312.635 263.728 312.647 264.016 312.971 264.016C313.247 264.016 313.319 263.884 313.319 263.488V262.576H314.531V263.212C314.531 263.944 314.399 264.412 314.135 264.7C313.871 264.988 313.487 265.096 312.971 265.096C312.539 265.096 312.143 264.976 311.867 264.676C311.591 264.376 311.423 263.884 311.423 263.152V260.284C311.423 259.552 311.591 259.06 311.867 258.76C312.143 258.46 312.539 258.34 312.971 258.34C313.487 258.34 313.871 258.448 314.135 258.736C314.399 259.024 314.531 259.492 314.531 260.224V260.74H313.319V259.948C313.319 259.552 313.247 259.42 312.971 259.42C312.647 259.42 312.635 259.708 312.635 259.948V263.488ZM316.71 256.816V258.436H317.538V259.528H316.71V262.792C316.71 262.996 316.71 263.26 316.758 263.476C316.806 263.692 316.902 263.872 317.094 263.872C317.19 263.872 317.31 263.86 317.394 263.848C317.442 263.836 317.49 263.836 317.538 263.824V265.012C317.478 265.024 317.418 265.048 317.358 265.06C317.238 265.084 317.082 265.096 316.89 265.096C316.182 265.096 315.846 264.736 315.678 264.28C315.51 263.824 315.498 263.272 315.498 262.888V259.528H314.886V258.436H315.498V256.816H316.71ZM318.187 256.18H319.399V257.392H318.187V256.18ZM318.187 265V258.436H319.399V265H318.187ZM323.332 263.404C323.296 264.04 323.104 264.484 322.684 264.832C322.468 265.012 322.168 265.096 321.772 265.096C320.992 265.096 320.608 264.664 320.416 264.232C320.308 263.98 320.236 263.692 320.224 263.368V260.068C320.26 259.432 320.452 258.964 320.872 258.604C321.076 258.424 321.376 258.34 321.772 258.34C322.552 258.34 322.948 258.772 323.14 259.192C323.248 259.444 323.32 259.72 323.332 260.032V263.404ZM322.192 260.068C322.204 259.816 322.156 259.636 322.036 259.492C321.976 259.432 321.88 259.396 321.772 259.396C321.544 259.396 321.448 259.552 321.4 259.732C321.364 259.828 321.352 259.936 321.364 260.068V263.368C321.352 263.62 321.412 263.8 321.52 263.932C321.58 263.992 321.664 264.028 321.772 264.028C322 264.028 322.108 263.884 322.156 263.704C322.192 263.608 322.204 263.5 322.192 263.368V260.068ZM325.376 265H324.164V258.436H325.376V258.988C325.4 258.976 325.448 258.928 325.52 258.856C325.652 258.724 325.832 258.544 326.048 258.424C326.156 258.364 326.252 258.34 326.36 258.34C326.684 258.34 326.912 258.532 327.056 258.772C327.2 259.024 327.272 259.348 327.272 259.624V265H326.06V259.804C326.06 259.552 325.916 259.516 325.772 259.516C325.64 259.516 325.568 259.588 325.484 259.672C325.448 259.72 325.412 259.768 325.376 259.828V265Z" fill="#1E1E1E"/>
<path d="M145.796 244L145.124 240.28H144.776V244H143.48V235.18H144.776C146.324 235.18 146.984 236.056 146.984 237.724C146.984 238.6 146.756 239.392 146.264 239.728L147.092 244H145.796ZM144.776 239.08C144.956 239.08 145.196 239.056 145.388 238.888C145.58 238.72 145.736 238.396 145.736 237.772C145.736 237.148 145.58 236.812 145.388 236.644C145.196 236.476 144.956 236.464 144.776 236.464V239.08ZM150.852 241.648V242.404C150.816 243.04 150.624 243.484 150.192 243.832C149.976 244.012 149.676 244.096 149.28 244.096C148.5 244.096 148.104 243.664 147.912 243.232C147.804 242.98 147.732 242.692 147.72 242.368V239.068C147.756 238.432 147.96 237.964 148.392 237.604C148.596 237.424 148.896 237.34 149.292 237.34C150.072 237.34 150.468 237.772 150.66 238.192C150.768 238.444 150.84 238.72 150.852 239.032V240.94H148.848V242.368C148.86 242.62 148.932 242.8 149.04 242.932C149.1 242.992 149.184 243.028 149.292 243.028C149.52 243.028 149.628 242.884 149.676 242.704C149.712 242.608 149.724 242.5 149.724 242.368V241.648H150.852ZM148.848 239.992H149.724V239.068C149.724 238.816 149.676 238.636 149.556 238.492C149.496 238.432 149.4 238.396 149.292 238.396C149.064 238.396 148.968 238.552 148.908 238.732C148.872 238.828 148.86 238.936 148.848 239.068V239.992ZM153.472 239.116C153.472 238.96 153.472 238.768 153.424 238.612C153.364 238.468 153.268 238.348 153.076 238.348C152.92 238.348 152.824 238.468 152.776 238.612C152.716 238.756 152.704 238.96 152.704 239.116C152.704 239.32 152.812 239.536 152.968 239.728C153.112 239.92 153.304 240.112 153.496 240.292C153.748 240.544 154.048 240.832 154.252 241.156C154.456 241.492 154.612 241.864 154.612 242.296C154.612 242.716 154.516 243.16 154.276 243.496C154.024 243.844 153.64 244.096 153.064 244.096C152.332 244.096 151.9 243.76 151.66 243.352C151.42 242.944 151.372 242.44 151.372 242.092H152.5C152.5 242.272 152.512 242.524 152.596 242.716C152.68 242.92 152.812 243.088 153.064 243.088C153.412 243.088 153.484 242.68 153.484 242.296C153.484 241.9 153.1 241.504 152.728 241.132C152.44 240.856 152.164 240.604 151.948 240.28C151.732 239.956 151.576 239.596 151.576 239.116C151.576 238.732 151.648 238.288 151.876 237.94C152.104 237.604 152.476 237.352 153.052 237.34C153.76 237.328 154.156 237.592 154.36 237.94C154.564 238.288 154.6 238.744 154.6 239.116H153.472ZM155.328 237.436H156.54V237.868C156.744 237.676 156.924 237.532 157.164 237.424C157.272 237.364 157.392 237.34 157.5 237.34C157.836 237.34 158.064 237.532 158.22 237.772C158.364 238.024 158.436 238.348 158.436 238.624V242.812C158.436 243.088 158.364 243.412 158.22 243.652C158.064 243.904 157.836 244.096 157.5 244.096C157.272 244.096 157.032 243.964 156.852 243.832C156.744 243.748 156.648 243.664 156.54 243.568V246.256H155.328V237.436ZM156.54 242.56C156.54 242.752 156.72 242.956 156.9 242.956C157.08 242.956 157.224 242.788 157.224 242.56V238.876C157.224 238.648 157.08 238.48 156.9 238.48C156.72 238.48 156.54 238.648 156.54 238.876V242.56ZM162.347 242.404C162.311 243.04 162.119 243.484 161.699 243.832C161.483 244.012 161.183 244.096 160.787 244.096C160.007 244.096 159.623 243.664 159.431 243.232C159.323 242.98 159.251 242.692 159.239 242.368V239.068C159.275 238.432 159.467 237.964 159.887 237.604C160.091 237.424 160.391 237.34 160.787 237.34C161.567 237.34 161.963 237.772 162.155 238.192C162.263 238.444 162.335 238.72 162.347 239.032V242.404ZM161.207 239.068C161.219 238.816 161.171 238.636 161.051 238.492C160.991 238.432 160.895 238.396 160.787 238.396C160.559 238.396 160.463 238.552 160.415 238.732C160.379 238.828 160.367 238.936 160.379 239.068V242.368C160.367 242.62 160.427 242.8 160.535 242.932C160.595 242.992 160.679 243.028 160.787 243.028C161.015 243.028 161.123 242.884 161.171 242.704C161.207 242.608 161.219 242.5 161.207 242.368V239.068ZM164.391 244H163.179V237.436H164.391V237.988C164.415 237.976 164.463 237.928 164.535 237.856C164.667 237.724 164.847 237.544 165.063 237.424C165.171 237.364 165.267 237.34 165.375 237.34C165.699 237.34 165.927 237.532 166.071 237.772C166.215 238.024 166.287 238.348 166.287 238.624V244H165.075V238.804C165.075 238.552 164.931 238.516 164.787 238.516C164.655 238.516 164.583 238.588 164.499 238.672C164.463 238.72 164.427 238.768 164.391 238.828V244ZM169 239.116C169 238.96 169 238.768 168.952 238.612C168.892 238.468 168.796 238.348 168.604 238.348C168.448 238.348 168.352 238.468 168.304 238.612C168.244 238.756 168.232 238.96 168.232 239.116C168.232 239.32 168.34 239.536 168.496 239.728C168.64 239.92 168.832 240.112 169.024 240.292C169.276 240.544 169.576 240.832 169.78 241.156C169.984 241.492 170.14 241.864 170.14 242.296C170.14 242.716 170.044 243.16 169.804 243.496C169.552 243.844 169.168 244.096 168.592 244.096C167.86 244.096 167.428 243.76 167.188 243.352C166.948 242.944 166.9 242.44 166.9 242.092H168.028C168.028 242.272 168.04 242.524 168.124 242.716C168.208 242.92 168.34 243.088 168.592 243.088C168.94 243.088 169.012 242.68 169.012 242.296C169.012 241.9 168.628 241.504 168.256 241.132C167.968 240.856 167.692 240.604 167.476 240.28C167.26 239.956 167.104 239.596 167.104 239.116C167.104 238.732 167.176 238.288 167.404 237.94C167.632 237.604 168.004 237.352 168.58 237.34C169.288 237.328 169.684 237.592 169.888 237.94C170.092 238.288 170.128 238.744 170.128 239.116H169ZM173.891 241.648V242.404C173.855 243.04 173.663 243.484 173.231 243.832C173.015 244.012 172.715 244.096 172.319 244.096C171.539 244.096 171.143 243.664 170.951 243.232C170.843 242.98 170.771 242.692 170.759 242.368V239.068C170.795 238.432 170.999 237.964 171.431 237.604C171.635 237.424 171.935 237.34 172.331 237.34C173.111 237.34 173.507 237.772 173.699 238.192C173.807 238.444 173.879 238.72 173.891 239.032V240.94H171.887V242.368C171.899 242.62 171.971 242.8 172.079 242.932C172.139 242.992 172.223 243.028 172.331 243.028C172.559 243.028 172.667 242.884 172.715 242.704C172.751 242.608 172.763 242.5 172.763 242.368V241.648H173.891ZM171.887 239.992H172.763V239.068C172.763 238.816 172.715 238.636 172.595 238.492C172.535 238.432 172.439 238.396 172.331 238.396C172.103 238.396 172.007 238.552 171.947 238.732C171.911 238.828 171.899 238.936 171.887 239.068V239.992ZM176.574 244V235.18H177.714C178.482 235.18 179.082 235.324 179.478 235.696C179.874 236.068 180.078 236.644 180.078 237.52C180.078 237.94 180.042 238.252 179.91 238.54C179.778 238.828 179.574 239.068 179.274 239.344C179.598 239.524 179.838 239.86 180.03 240.424C180.126 240.7 180.174 241.06 180.174 241.504C180.174 242.164 180.054 242.752 179.754 243.208C179.454 243.664 178.938 243.964 178.17 244H176.574ZM177.87 238.816C177.978 238.816 178.23 238.828 178.446 238.684C178.662 238.54 178.83 238.252 178.83 237.64C178.83 237.028 178.662 236.74 178.446 236.596C178.23 236.452 177.978 236.464 177.87 236.464V238.816ZM177.87 242.716C177.978 242.716 178.23 242.74 178.446 242.584C178.662 242.428 178.83 242.08 178.83 241.36C178.83 240.64 178.662 240.292 178.446 240.136C178.23 239.98 177.978 240.004 177.87 240.004V242.716ZM183.945 242.404C183.909 243.04 183.717 243.484 183.297 243.832C183.081 244.012 182.781 244.096 182.385 244.096C181.605 244.096 181.221 243.664 181.029 243.232C180.921 242.98 180.849 242.692 180.837 242.368V239.068C180.873 238.432 181.065 237.964 181.485 237.604C181.689 237.424 181.989 237.34 182.385 237.34C183.165 237.34 183.561 237.772 183.753 238.192C183.861 238.444 183.933 238.72 183.945 239.032V242.404ZM182.805 239.068C182.817 238.816 182.769 238.636 182.649 238.492C182.589 238.432 182.493 238.396 182.385 238.396C182.157 238.396 182.061 238.552 182.013 238.732C181.977 238.828 181.965 238.936 181.977 239.068V242.368C181.965 242.62 182.025 242.8 182.133 242.932C182.193 242.992 182.277 243.028 182.385 243.028C182.613 243.028 182.721 242.884 182.769 242.704C182.805 242.608 182.817 242.5 182.805 242.368V239.068ZM187.86 244H186.648V243.568C186.444 243.76 186.264 243.904 186.036 244.012C185.916 244.072 185.796 244.096 185.688 244.096C185.352 244.096 185.124 243.904 184.98 243.652C184.824 243.412 184.752 243.088 184.752 242.812V238.624C184.752 238.348 184.824 238.024 184.98 237.772C185.124 237.532 185.352 237.34 185.688 237.34C185.916 237.34 186.156 237.472 186.336 237.604C186.444 237.688 186.54 237.772 186.648 237.868V235.18H187.86V244ZM186.648 238.876C186.648 238.684 186.468 238.48 186.288 238.48C186.108 238.48 185.964 238.648 185.964 238.876V242.56C185.964 242.788 186.108 242.956 186.288 242.956C186.468 242.956 186.648 242.788 186.648 242.56V238.876ZM188.532 245.248C188.544 245.26 188.568 245.26 188.604 245.26C188.664 245.272 188.964 245.296 189.156 245.152C189.348 245.008 189.48 244.804 189.552 244.552C189.588 244.432 189.6 244.312 189.6 244.192L188.484 237.436H189.672L190.152 241.468L190.176 241.804H190.224L190.248 241.468L190.728 237.436H191.916L190.752 244.492C190.692 244.96 190.512 245.416 190.224 245.764C189.936 246.112 189.552 246.352 189.072 246.352C189.036 246.352 188.988 246.352 188.928 246.352C188.82 246.352 188.676 246.34 188.532 246.328V245.248Z" fill="#1E1E1E"/>
<path d="M61.784 62.16H60.776V66H59.48V57.18H60.776V60.828H61.784V57.18H63.08V66H61.784V62.16ZM63.5826 58.512V57.18H67.3266V58.512H66.1026V66H64.8066V58.512H63.5826ZM69.9835 66L69.1555 60.456L69.1075 60.084H69.0355V66H67.8355V57.18H69.4195L70.1875 61.212L70.2475 61.68H70.2715L70.3315 61.212L71.0995 57.18H72.6835V66H71.4835V60.084H71.4115L71.3635 60.456L70.5355 66H69.9835ZM74.536 66H73.264L74.692 61.368L73.288 57.18H74.56L75.268 59.412L75.304 59.52H75.352L75.388 59.412L76.096 57.18H77.368L75.964 61.368L77.392 66H76.12L75.376 63.372L75.352 63.264H75.304L75.28 63.372L74.536 66ZM82.2478 60.684C82.1398 60.648 82.0198 60.636 81.9118 60.636C81.7198 60.636 81.4918 60.66 81.2998 60.84C81.0718 61.032 81.0358 61.236 81.0358 61.44V66H79.8238V59.436H81.0358V60.168C81.0478 60.084 81.1318 59.88 81.3238 59.688C81.5158 59.508 81.8038 59.34 82.2478 59.34V60.684ZM85.766 63.648V64.404C85.73 65.04 85.538 65.484 85.106 65.832C84.89 66.012 84.59 66.096 84.194 66.096C83.414 66.096 83.018 65.664 82.826 65.232C82.718 64.98 82.646 64.692 82.634 64.368V61.068C82.67 60.432 82.874 59.964 83.306 59.604C83.51 59.424 83.81 59.34 84.206 59.34C84.986 59.34 85.382 59.772 85.574 60.192C85.682 60.444 85.754 60.72 85.766 61.032V62.94H83.762V64.368C83.774 64.62 83.846 64.8 83.954 64.932C84.014 64.992 84.098 65.028 84.206 65.028C84.434 65.028 84.542 64.884 84.59 64.704C84.626 64.608 84.638 64.5 84.638 64.368V63.648H85.766ZM83.762 61.992H84.638V61.068C84.638 60.816 84.59 60.636 84.47 60.492C84.41 60.432 84.314 60.396 84.206 60.396C83.978 60.396 83.882 60.552 83.822 60.732C83.786 60.828 83.774 60.936 83.762 61.068V61.992ZM89.6572 68.256H88.4452V65.568C88.2412 65.76 88.0612 65.904 87.8332 66.012C87.7132 66.072 87.5932 66.096 87.4852 66.096C87.1492 66.096 86.9212 65.904 86.7772 65.652C86.6212 65.412 86.5492 65.088 86.5492 64.812V60.624C86.5492 60.348 86.6212 60.024 86.7772 59.772C86.9212 59.532 87.1492 59.34 87.4852 59.34C87.7132 59.34 87.9532 59.472 88.1332 59.604C88.2412 59.688 88.3372 59.772 88.4452 59.868V59.436H89.6572V68.256ZM88.4452 60.876C88.4452 60.648 88.2652 60.48 88.0852 60.48C87.9052 60.48 87.7612 60.648 87.7612 60.876V64.56C87.7612 64.788 87.9052 64.956 88.0852 64.956C88.2652 64.956 88.4452 64.752 88.4452 64.56V60.876ZM92.4887 59.436H93.7007V66H92.4887V65.448C92.4647 65.46 92.4167 65.508 92.3567 65.568C92.2127 65.712 92.0447 65.88 91.8287 66C91.7207 66.06 91.6127 66.096 91.5047 66.096C91.1807 66.096 90.9527 65.904 90.8087 65.652C90.6647 65.412 90.5927 65.088 90.5927 64.812V59.436H91.8047V64.632C91.8047 64.884 91.9487 64.92 92.0927 64.92C92.2247 64.92 92.2967 64.848 92.3807 64.764C92.4167 64.728 92.4527 64.668 92.4887 64.608V59.436ZM97.6488 63.648V64.404C97.6128 65.04 97.4208 65.484 96.9888 65.832C96.7728 66.012 96.4728 66.096 96.0768 66.096C95.2968 66.096 94.9008 65.664 94.7088 65.232C94.6008 64.98 94.5288 64.692 94.5168 64.368V61.068C94.5528 60.432 94.7568 59.964 95.1888 59.604C95.3928 59.424 95.6928 59.34 96.0888 59.34C96.8688 59.34 97.2648 59.772 97.4568 60.192C97.5648 60.444 97.6368 60.72 97.6488 61.032V62.94H95.6448V64.368C95.6568 64.62 95.7288 64.8 95.8368 64.932C95.8968 64.992 95.9808 65.028 96.0888 65.028C96.3168 65.028 96.4248 64.884 96.4728 64.704C96.5088 64.608 96.5208 64.5 96.5208 64.368V63.648H97.6488ZM95.6448 61.992H96.5208V61.068C96.5208 60.816 96.4728 60.636 96.3528 60.492C96.2928 60.432 96.1968 60.396 96.0888 60.396C95.8608 60.396 95.7648 60.552 95.7048 60.732C95.6688 60.828 95.6568 60.936 95.6448 61.068V61.992ZM100.269 61.116C100.269 60.96 100.269 60.768 100.221 60.612C100.161 60.468 100.065 60.348 99.8731 60.348C99.7171 60.348 99.6211 60.468 99.5731 60.612C99.5131 60.756 99.5011 60.96 99.5011 61.116C99.5011 61.32 99.6091 61.536 99.7651 61.728C99.9091 61.92 100.101 62.112 100.293 62.292C100.545 62.544 100.845 62.832 101.049 63.156C101.253 63.492 101.409 63.864 101.409 64.296C101.409 64.716 101.313 65.16 101.073 65.496C100.821 65.844 100.437 66.096 99.8611 66.096C99.1291 66.096 98.6971 65.76 98.4571 65.352C98.2171 64.944 98.1691 64.44 98.1691 64.092H99.2971C99.2971 64.272 99.3091 64.524 99.3931 64.716C99.4771 64.92 99.6091 65.088 99.8611 65.088C100.209 65.088 100.281 64.68 100.281 64.296C100.281 63.9 99.8971 63.504 99.5251 63.132C99.2371 62.856 98.9611 62.604 98.7451 62.28C98.5291 61.956 98.3731 61.596 98.3731 61.116C98.3731 60.732 98.4451 60.288 98.6731 59.94C98.9011 59.604 99.2731 59.352 99.8491 59.34C100.557 59.328 100.953 59.592 101.157 59.94C101.361 60.288 101.397 60.744 101.397 61.116H100.269ZM103.483 57.816V59.436H104.311V60.528H103.483V63.792C103.483 63.996 103.483 64.26 103.531 64.476C103.579 64.692 103.675 64.872 103.867 64.872C103.963 64.872 104.083 64.86 104.167 64.848C104.215 64.836 104.263 64.836 104.311 64.824V66.012C104.251 66.024 104.191 66.048 104.131 66.06C104.011 66.084 103.855 66.096 103.663 66.096C102.955 66.096 102.619 65.736 102.451 65.28C102.283 64.824 102.271 64.272 102.271 63.888V60.528H101.659V59.436H102.271V57.816H103.483Z" fill="#1E1E1E"/>
<path d="M108.354 76.3536C108.549 76.1583 108.549 75.8417 108.354 75.6464L105.172 72.4645C104.976 72.2692 104.66 72.2692 104.464 72.4645C104.269 72.6597 104.269 72.9763 104.464 73.1716L107.293 76L104.464 78.8284C104.269 79.0237 104.269 79.3403 104.464 79.5355C104.66 79.7308 104.976 79.7308 105.172 79.5355L108.354 76.3536ZM55 76.5H108V75.5H55V76.5Z" fill="#1E1E1E"/>
<path d="M195.646 286.646C195.451 286.842 195.451 287.158 195.646 287.354L198.828 290.536C199.024 290.731 199.34 290.731 199.536 290.536C199.731 290.34 199.731 290.024 199.536 289.828L196.707 287L199.536 284.172C199.731 283.976 199.731 283.66 199.536 283.464C199.34 283.269 199.024 283.269 198.828 283.464L195.646 286.646ZM249 286.5L196 286.5L196 287.5L249 287.5L249 286.5Z" fill="#1E1E1E"/>
<path d="M72.6465 286.646C72.4512 286.842 72.4512 287.158 72.6465 287.354L75.8284 290.536C76.0237 290.731 76.3403 290.731 76.5355 290.536C76.7308 290.34 76.7308 290.024 76.5355 289.828L73.7071 287L76.5355 284.172C76.7308 283.976 76.7308 283.66 76.5355 283.464C76.3403 283.269 76.0237 283.269 75.8284 283.464L72.6465 286.646ZM126 286.5L73 286.5L73 287.5L126 287.5L126 286.5Z" fill="#1E1E1E"/>
<path d="M213.354 76.3536C213.549 76.1583 213.549 75.8417 213.354 75.6464L210.172 72.4645C209.976 72.2692 209.66 72.2692 209.464 72.4645C209.269 72.6597 209.269 72.9763 209.464 73.1716L212.293 76L209.464 78.8284C209.269 79.0237 209.269 79.3403 209.464 79.5355C209.66 79.7308 209.976 79.7308 210.172 79.5355L213.354 76.3536ZM160 76.5H213V75.5H160V76.5Z" fill="#1E1E1E"/>
<path d="M303.646 247.354C303.842 247.549 304.158 247.549 304.354 247.354L307.536 244.172C307.731 243.976 307.731 243.66 307.536 243.464C307.34 243.269 307.024 243.269 306.828 243.464L304 246.293L301.172 243.464C300.976 243.269 300.66 243.269 300.464 243.464C300.269 243.66 300.269 243.976 300.464 244.172L303.646 247.354ZM303.5 194L303.5 247L304.5 247L304.5 194L303.5 194Z" fill="#1E1E1E"/>
<path d="M303 76L303.5 76L303.5 75.5H303V76ZM302.646 122.354C302.842 122.549 303.158 122.549 303.354 122.354L306.536 119.172C306.731 118.976 306.731 118.66 306.536 118.464C306.34 118.269 306.024 118.269 305.828 118.464L303 121.293L300.172 118.464C299.976 118.269 299.66 118.269 299.464 118.464C299.269 118.66 299.269 118.976 299.464 119.172L302.646 122.354ZM266 76.5H303V75.5H266V76.5ZM302.5 76L302.5 122L303.5 122L303.5 76L302.5 76Z" fill="#1E1E1E"/>
</g>
<defs>
<clipPath id="clip0_736_413">
<rect width="360" height="360" fill="white"/>
</clipPath>
</defs>
</svg>
